# xmcd CD database file
#
# Track frame offsets:
#	150
#	42710
#	74438
#	116042
#	169325
#	212920
#	268894
#
# Disc length: 4051 seconds
#
# Revision: 0
# Processed by: cddbd v1.5PL3 Copyright (c) Steve Scherf et al.
# Submitted via: CDex 1.51
#
DISCID=750fd107
DTITLE=Karl Ratzer - All the way
DYEAR=2003
DGENRE=Jazz
TTITLE0=Nature boy
TTITLE1=South of Greenwich village
TTITLE2=Kollerland
TTITLE3=Who can I turn to ?
TTITLE4=Candombe
TTITLE5=Don't make a fool of me
TTITLE6=Saturn returning
EXTD=YEAR: 2003
EXTT0=
EXTT1=
EXTT2=
EXTT3=
EXTT4=
EXTT5=
EXTT6=
PLAYORDER=
